PathFileType	4	(X/Y/Z)	Walk1.trc
DataRate	CameraRate	NumFrames	NumMarkers	Units	OrigDataRate	OrigDataStartFrame	OrigNumFrames
200.000000	200.000000	4	61	mm	200.000000	590	638
Frame#	Times		RCAR		LToe		LLFC		LASI		LFA1		RACR1		LUA1		RWRR		LCAR		LElbow		RLFC		LWRR		RTB2		RToe		RFA1		LACR1		RMT1		RTH3		RTH2		RTB3		LTH3		RFHD		RMT5		LTH4		RTB1		STRN		LFHD		LTB1		RTB4		LTB4		LWRU		RCAL		RWRU		LPSI		LTH2		C7		LMT1		RPSI		RMMAL		RLMAL		RASI		RMFC		LTB3		CLAV		LTB2		RElbow		LBHD		RBHD		LMFC		RUA1		RBack		RElbowM		LMMAL		RTH4		LElbowM		LMT5		LCAL		T10		LTH1		LLMAL		RTH1
			X1	Y1	Z1	X2	Y2	Z2	X3	Y3	Z3	X4	Y4	Z4	X5	Y5	Z5	X6	Y6	Z6	X7	Y7	Z7	X8	Y8	Z8	X9	Y9	Z9	X10	Y10	Z10	X11	Y11	Z11	X12	Y12	Z12	X13	Y13	Z13	X14	Y14	Z14	X15	Y15	Z15	X16	Y16	Z16	X17	Y17	Z17	X18	Y18	Z18	X19	Y19	Z19	X20	Y20	Z20	X21	Y21	Z21	X22	Y22	Z22	X23	Y23	Z23	X24	Y24	Z24	X25	Y25	Z25	X26	Y26	Z26	X27	Y27	Z27	X28	Y28	Z28	X29	Y29	Z29	X30	Y30	Z30	X31	Y31	Z31	X32	Y32	Z32	X33	Y33	Z33	X34	Y34	Z34	X35	Y35	Z35	X36	Y36	Z36	X37	Y37	Z37	X38	Y38	Z38	X39	Y39	Z39	X40	Y40	Z40	X41	Y41	Z41	X42	Y42	Z42	X43	Y43	Z43	X44	Y44	Z44	X45	Y45	Z45	X46	Y46	Z46	X47	Y47	Z47	X48	Y48	Z48	X49	Y49	Z49	X50	Y50	Z50	X51	Y51	Z51	X52	Y52	Z52	X53	Y53	Z53	X54	Y54	Z54	X55	Y55	Z55	X56	Y56	Z56	X57	Y57	Z57	X58	Y58	Z58	X59	Y59	Z59	X60	Y60	Z60	X61	Y61	Z61

590	2.95	1090.7	881.97	423.67	1203.6	32.301	21.339	1018.4	507.15	-100.21	1116.7	1048.7	-121.92	1124.1	1081	-288.53	1057.6	1520.5	226.46	1047.1	1365.7	-229.57	1102.5	924.64	362.8	1196.5	928.94	-301.3	1020	1196.6	-281.58	1185.7	548.96	247.72	1192.7	967.14	-244.95	1141.1	320	224.85	1193.4	55.251	175.19	1050.5	1063.4	382.69	1050.4	1548.1	-145.39	1149.8	77.791	158.07	1141.2	665.58	252.32	1157.6	769.53	258.64	1102	247.47	158.14	1044.5	653.97	-130.78	1199.1	1718.2	108.08	1101.2	65.587	240.98	1043.5	738.55	-151.22	1186.9	400.41	163.82	1186.1	1316.2	34.06	1200.9	1725	2.275	1052.6	365.53	12.141	1144.6	326.03	155.11	1041.2	282	21.223	1118.2	948.87	-299.22	938.32	136.32	159.62	1030.3	919.19	414.34	893.55	1089	-18.586	1102.3	742.58	-142.99	949.86	1572.6	47.799	1147.9	47.677	36.841	894.12	1078.1	90.507	1045.7	167.73	113.63	1003.6	150.88	205.5	1114.1	1057.4	193.51	1177.5	531.45	103.07	1033.1	197.11	28.812	1120.1	1488	26.652	1062	274	-38.438	968.16	1193.7	357.64	1033.7	1712.6	-18.627	1028.6	1706.7	122.82	1027.6	512.98	42.719	1023.7	1346.6	306.86	893.76	1453.3	163.15	946.25	1163	267.79	1009.3	98.921	75.151	1104	740.95	256.69	991.57	1164.9	-196.51	1100.7	27.711	-54.881	920.37	45.721	18.519	910.59	1215.5	32.849	1042.2	823.91	-170.17	985.97	67.311	-23.05	1066.2	821.58	258.63
591	2.955	1094.2	881.86	423.51	1203.6	32.315	21.188	1020	507.11	-100.33	1120.9	1048.6	-122.08	1129.6	1081.2	-288.65	1061.9	1520.3	226.46	1051.7	1365.5	-229.72	1106.1	924.53	362.65	1202.8	929.57	-301.32	1025	1196.4	-281.83	1192.6	549.07	247.42	1198.8	967.77	-244.97	1153.1	318.89	224.59	1212	55.723	174.82	1054	1063.2	382.45	1054.9	1547.8	-145.47	1167.8	77.042	157.79	1147.7	665.94	252.37	1163.6	769.95	258.65	1115.8	245.54	157.89	1046.9	653.89	-130.84	1203.5	1718.1	108.13	1119.5	63.721	240.68	1046.5	738.51	-151.24	1196.8	400.31	163.68	1190.5	1316	33.965	1205.3	1724.8	2.3292	1053.7	365.31	12.015	1156.3	324.97	155.34	1042	281.81	21.166	1124.3	949.09	-299.28	954.89	130.2	159.45	1033.8	918.92	413.92	898.02	1088.8	-18.232	1105.3	742.19	-142.79	954.28	1572.4	47.721	1147.9	47.709	36.794	898.8	1077.7	90.81	1061.6	164.49	113.34	1019.8	146.42	205.28	1119	1057.1	193.45	1184	531.51	102.8	1033.5	196.93	28.808	1124.5	1487.8	26.598	1062.7	273.76	-38.546	971.75	1193.6	357.38	1038.2	1712.4	-18.638	1032.9	1706.5	122.82	1029.3	512.91	42.562	1027.7	1346.4	306.78	898.09	1453.1	163	949.99	1163	267.46	1009.3	99.013	75.144	1110.1	741.16	256.84	996.64	1164.5	-196.79	1100.6	27.675	-54.913	920.41	45.682	18.632	915.16	1215.2	33.051	1045.6	823.87	-170.17	986.01	67.357	-23.041	1072.2	821.63	258.81
592	2.96	1097.7	881.7	423.33	1203.7	32.331	21.036	1021.6	507.07	-100.44	1125.2	1048.4	-122.22	1135.1	1081.4	-288.75	1066.2	1520.1	226.47	1056.3	1365.3	-229.86	1109.7	924.36	362.48	1209	930.16	-301.32	1030	1196.1	-282.05	1199.4	549.08	247.15	1204.8	968.35	-244.97	1165.2	317.8	224.32	1230.5	56.354	174.37	1057.5	1062.9	382.19	1059.3	1547.5	-145.54	1185.7	76.457	157.44	1154.1	666.21	252.39	1169.5	770.27	258.65	1129.6	243.68	157.63	1049.5	653.8	-130.88	1207.8	1717.9	108.18	1137.9	62.009	240.33	1049.5	738.47	-151.25	1206.6	400.18	163.56	1195	1315.8	33.883	1209.7	1724.7	2.384	1054.7	365.1	11.892	1168.1	323.92	155.56	1042.7	281.62	21.108	1130.5	949.27	-299.32	971.59	124.19	159.25	1037.2	918.63	413.52	902.5	1088.6	-17.872	1108.3	741.79	-142.54	958.7	1572.1	47.658	1147.9	47.739	36.752	903.5	1077.4	91.12	1077.5	161.36	113.02	1036.1	142.06	205.02	1123.8	1056.8	193.45	1190.5	531.49	102.52	1034	196.77	28.808	1129	1487.6	26.555	1063.5	273.51	-38.638	975.39	1193.4	357.13	1042.6	1712.1	-18.643	1037.3	1706.3	122.84	1031.1	512.84	42.423	1031.6	1346.2	306.69	902.44	1452.9	162.86	953.78	1162.9	267.13	1009.3	99.098	75.131	1116.2	741.3	256.97	1001.7	1164.1	-197.04	1100.6	27.635	-54.935	920.45	45.647	18.737	919.75	1215	33.267	1049.1	823.8	-170.15	986.05	67.401	-23.035	1078.1	821.6	258.97
593	2.965	1101.2	881.49	423.15	1203.7	32.35	20.886	1023.2	507.02	-100.54	1129.6	1048.2	-122.35	1140.6	1081.6	-288.83	1070.6	1519.9	226.48	1061	1365	-229.97	1113.3	924.15	362.3	1215.2	930.7	-301.3	1034.9	1195.8	-282.24	1206.1	548.99	246.89	1210.8	968.88	-244.96	1177.2	316.73	224.04	1248.9	57.151	173.85	1061.1	1062.6	381.93	1063.7	1547.2	-145.6	1203.7	76.042	157.02	1160.3	666.39	252.39	1175.3	770.5	258.67	1143.4	241.89	157.34	1052	653.7	-130.9	1212.2	1717.7	108.23	1156.3	60.46	239.93	1052.6	738.42	-151.24	1216.3	400.03	163.45	1199.5	1315.6	33.81	1214.1	1724.5	2.4401	1055.8	364.88	11.772	1179.8	322.88	155.76	1043.5	281.43	21.049	1136.6	949.41	-299.33	988.39	118.32	159.04	1040.7	918.31	413.14	907	1088.4	-17.506	1111.4	741.39	-142.26	963.13	1571.9	47.61	1147.9	47.764	36.717	908.22	1077	91.437	1093.5	158.32	112.68	1052.4	137.82	204.74	1128.6	1056.4	193.49	1196.9	531.41	102.21	1034.5	196.61	28.811	1133.5	1487.4	26.523	1064.2	273.24	-38.713	979.09	1193.2	356.87	1047	1711.9	-18.641	1041.6	1706	122.86	1032.8	512.78	42.303	1035.6	1346	306.61	906.81	1452.6	162.75	957.61	1162.8	266.8	1009.2	99.172	75.112	1122.1	741.36	257.06	1006.7	1163.7	-197.25	1100.6	27.59	-54.95	920.49	45.621	18.831	924.36	1214.6	33.499	1052.6	823.71	-170.12	986.09	67.443	-23.03	1083.9	821.49	259.1
